<?xml version="1.0" encoding="UTF-8"?>
<svg id="_图层_2" xmlns="http://www.w3.org/2000/svg" version="1.1" xmlns:xlink="http://www.w3.org/1999/xlink" viewBox="0 0 580.7 140.8">
  <!-- Generator: Adobe Illustrator 29.8.2, SVG Export Plug-In . SVG Version: 2.1.1 Build 3)  -->
  <defs>
    <style>
      .st0 {
        fill: #fff;
      }

      .st1 {
        fill: #fafaff;
      }

      .st2 {
        fill: url(#_未命名的渐变);
      }

      .st3 {
        fill: #3c891d;
      }

      .st4 {
        fill: url(#_未命名的渐变_2);
      }
    </style>
    <linearGradient id="_未命名的渐变" data-name="未命名的渐变" x1="273.9" y1="307.7" x2="314.3" y2="307.7" gradientTransform="translate(0 142) scale(1 -1)" gradientUnits="userSpaceOnUse">
      <stop offset="0" stop-color="#30c043"/>
      <stop offset=".7" stop-color="#38db4c"/>
      <stop offset="1" stop-color="#3deb52"/>
    </linearGradient>
    <linearGradient id="_未命名的渐变_2" data-name="未命名的渐变 2" x1="341.7" y1="264" x2="355.8" y2="264" gradientTransform="translate(0 142) scale(1 -1)" gradientUnits="userSpaceOnUse">
      <stop offset="0" stop-color="#30c043"/>
      <stop offset=".7" stop-color="#38db4c"/>
      <stop offset="1" stop-color="#3deb52"/>
    </linearGradient>
  </defs>
  <g id="_图层_1-2">
    <g>
      <path class="st0" d="M384.2-114.2h-13.6s-.5-.4-.5-.5v-6.6h21.3s.5.5.5.5v17.3c0,1.6-8.9,7.2-10.7,7.9-21.3,9.1-44.8-7.7-38.9-31.2,5.5-21.6,35.2-26.9,48.2-9.5l-5.9,4.7c-9.9-12.2-30.8-8.9-34.4,7.1-4.6,20.7,19.3,31,33.8,18.1v-7.8h0Z"/>
      <g>
        <path class="st0" d="M61.1-116.8v-32.1h12.3s.5.5.5.5v54.3h-10.1l-27.1-33v33h-12.8v-54.8h10.7l26.5,32.1h0Z"/>
        <path class="st0" d="M122.3-116.8v-32.1h12.3l.2,54.8h-10.1c-7.9-9.8-15.5-19.7-23.6-29.3-1.1-1.3-2.2-2.6-3.5-3.7v33h-12.5v-54.8h10.4c5.1,6.4,10.6,12.5,15.9,18.8,3.7,4.4,7,9.2,10.9,13.3h0Z"/>
        <path class="st0" d="M171.9-150.4c39.7-2.6,44.4,54.8,4.7,57.6s-44.4-55-4.7-57.6ZM186.6-133.7c-8.5-8.8-24-6.1-28.6,5.3-5.9,14.9,7.9,28.9,22.9,22.9,11-4.4,13.8-19.8,5.7-28.2h0Z"/>
        <path class="st0" d="M293.7-150.4c39.8-2.6,44.1,55,4.4,57.6-41.3,2.7-43.7-55-4.4-57.6ZM294-138.8c-23.4,2.2-19,39.4,5.5,34.4,20.8-4.2,16.3-36.5-5.5-34.4Z"/>
        <path class="st0" d="M521.4-145.3l10.1,39.8,11.1-39.2c.1-.4.4-.5.8-.5,2-.4,5,.3,7.1,0l11.7,39.8,10.3-39.8h8.3l-14,51.3c-1.4-.3-8.4.4-9-.3l-11.4-38.2-10.7,38.2c-.5.7-7.7.1-9.1.3l-13.5-51.3h8.3Z"/>
        <path class="st0" d="M217.7-148.9l15.7,38.5,16.2-38.5h14.1l-23.6,54.5c-.2.3-.6.3-.9.3-3.6.4-8.1-.4-11.9,0l-23.9-54.8h14.3Z"/>
        <path class="st0" d="M479.6-146.5c36-3,40.3,51.8,3.4,53.4-35.3,1.6-38.1-50.5-3.4-53.4ZM480.3-138.8c-24.3,2.1-21.9,40.3,3.4,38,24.2-2.1,21.5-40.2-3.4-38Z"/>
        <path class="st0" d="M430.2-145.3c8.4.7,15.5,6.2,16.2,14.9.6,8.3-3.8,14.6-11.9,16.7l13.8,19.7h-9.6c-4-6.5-8.5-12.7-13-18.9h-12.7v18.9h-8v-51.3h25.2ZM413-120h17.5c.6,0,3.5-1.2,4.1-1.7,5.4-3.6,4.7-12.3-1.1-15.2-.5-.2-2.7-1.1-3.1-1.1h-17.5v18h0Z"/>
        <rect class="st0" x=".2" y="-148.9" width="12.8" height="54.8"/>
        <path class="st2" d="M314.3-179c.2,2.5-.1,4.9-.9,7.2-3.4,10.3-13.3,16.2-23.9,16.5-4,.1-8-1-12,.3,3.7-3.4,8.4-5.4,13.1-6.7,0-.7-1.5-.2-1.9-.2-6,1-11,4.9-14.7,9.5,1.5-6.1,6.2-11.6,11.6-14.9,6.5-4,14.1-5.5,21.2-8.3,2.6-1,5-2.4,7.6-3.4h0Z"/>
        <path class="st0" d="M298.1-74.2c6,.7,9.2,7,5.1,11.9-.5.6-1.4.4-1.1,1.3,5.3,2,5.3,9.5.8,12.5-.5.3-2.7,1.3-3.1,1.3h-14.3v-26.9c4,.3,8.8-.5,12.7,0h0ZM289.3-70.7v7.5s.5.5.5.5h8c1.6,0,3.4-2.4,3.4-4s-1.7-4-3.4-4h-8.5ZM289.8-59.4c-.1.2-.5.4-.5.5v7.7s.5.5.5.5h8.6c3.4,0,5-5,2.3-7.4-.5-.4-2.4-1.3-2.9-1.3h-8Z"/>
        <path class="st0" d="M435.1-58.2h-7v-3.8h11.2v10.4c-9.7,9.7-25.5,4-24.4-10.6.8-9.6,10.8-15.2,19.5-11.1,1.2.6,4.6,2.7,3.6,4.1-2.3,3.4-2.9.7-5-.4-4.3-2.3-10.2-1.1-12.5,3.4-3.9,7.4,1.1,17.7,10.3,15.4.9-.2,4.4-1.8,4.4-2.6v-4.7h0Z"/>
        <path class="st0" d="M53.4-47.3h-3.8v-12c0-.3-.5-1.8-.7-2.1-1.8-3-7.2-1.5-7.6,1.8-.5,3.6.4,8.2,0,11.8-.3,1-3.2.4-4.1.5v-13c0,0-.8-1.4-1-1.6-1.4-1.6-4.3-1.5-5.9-.2-.4.3-1.4,1.8-1.4,2.1v12.7h-4.2v-18.8c0-.6,3.7-.6,3.9-.5.2.2-.3,1.9.2,2.2,3.2-3.8,8.7-3.2,11.5.6,3-4.3,10.3-4.5,12.6.6.1.3.7,2.1.7,2.2v13.6h0Z"/>
        <path class="st0" d="M215.6-45.8c-1,8.4-12.6,9.8-17.6,4.1,2.4-4.5,2.4-2,5-.8,5.4,2.4,9.6-1.3,8.7-7-4.2,4.3-11.2,2.9-13.7-2.4-4.4-9.3,4.8-19.4,13.6-12.6.4,0,0-1.3.2-1.6.3-.3,3.8-.7,3.8.1v20.2h0ZM205.6-63.2c-7.8,1.2-5.5,16,3.4,12.1,3.1-1.3,3.1-5,2.8-7.8-.3-2.8-3.5-4.7-6.2-4.2Z"/>
        <path class="st0" d="M486.4-66.1l3.9,13.8,4.5-13.8h3.9c0,0,4.5,13.8,4.5,13.8l4.2-13.5c.6-.7,3.3-.2,4.3-.3l-6.4,18.8c-.9.2-3.8.4-4.4-.2l-4.2-13.2-4.2,13.2c-.4.5-3.9.5-4.4.2-.8-.5-5.1-16.2-6.1-18.3,0-.6,0-.4.5-.5s3.5,0,3.7,0h0Z"/>
        <path class="st0" d="M7.1-74.4c3-.5,7,.1,9.5,1.9,1,.7,1.8,1.2,1.3,2.4-1.8,4.1-3.4.1-6.1-.4s-7-.4-7.3,3c-.4,3.7,5.9,4.3,8.4,5.3,2.9,1.1,6,2.8,6.3,6.2,1,9.6-10.7,11.3-17.1,7.2-1.1-.7-2.4-1.5-1.8-2.7,1.9-4,3.3-.8,5.6.2,3.7,1.7,10.7.8,9.1-4.6-1-3.4-11.6-3-13.9-8.2-2.1-4.9,1.3-9.5,6.3-10.3h0Z"/>
        <path class="st0" d="M226.1-74.5v9.9c3.7-3.3,10.3-3.1,12.5,1.8.1.3.7,1.8.7,1.9v13.6h-3.9v-11.7c0,0-.5-1.8-.6-2-1.8-3.8-8.7-1.6-8.7,1.4v12.3h-4.2v-27.2h4.2Z"/>
        <path class="st0" d="M536.5-74.5v10.3c3-3.6,10-3.4,12.2,1.1.2.3.9,2.5.9,2.6v13.3h-3.8v-11.7c0-.3-.6-2-.8-2.4-1.2-1.9-4.4-2.1-6.2-1.1-.5.3-2.3,2.4-2.3,2.9v12.3h-4.2v-27.2h4.2,0Z"/>
        <path class="st0" d="M131.6-55.3h-14.1c-.2,1.8,1.9,4.2,3.5,4.7,2.9.8,5-.3,7.2-2.1l2.4,2.4c-5.4,6.3-16.3,3.9-17.3-4.8-1.8-15.2,19.9-15.6,18.2-.1h0ZM127.4-58.5c-.1-6.6-9.5-6.3-9.9,0h9.9Z"/>
        <path class="st0" d="M368.2-55.3c1,4.8,5.3,6.1,9.4,3.8,1.5-.8,1.1-2.1,3.1-.1,1.4,1.4,1,1.5-.5,2.7-4.1,3.1-10.6,2.8-13.9-1.4-1.9-2.4-2.2-5-1.9-8,.9-10,15-11.8,17.8-1.8.2.8,1,4.8,0,4.8h-13.9ZM378.4-58.5c0-6.6-9.9-6.4-9.9,0h9.9Z"/>
        <path class="st0" d="M71.7-58.8c.4-4-2.9-5-6.2-4.1-2.1.6-2.8,2.7-4.4,1-2-2.1,0-3.2,2.1-4,5.9-2.5,12.1-.3,12.7,6.6.1,1.3.2,11.2-.2,11.7-.3.4-3.6.4-3.7.3s.3-1.6-.2-1.9c-4.2,4.6-14.1,2.2-12.9-4.9.3-2,3.2-4.7,5.2-4.7h7.5ZM66.1-55.8c-5.2.7-4.2,6.4,1.5,5.7,1.2-.1,2.9-.8,3.5-1.9.4-.6,1.2-2.9.5-3.4-.5-.3-4.7-.5-5.5-.4Z"/>
        <path class="st0" d="M328.7-55.3h-14.1c.6,3.9,3.7,5.5,7.5,4.7,1.1-.2,3.3-2.2,3.5-2.2.1,0,1.7,1.5,1.8,1.7.8,1.2-.7,1.9-1.6,2.6-5.6,3.6-14.1,1-15-6.1-2.1-16,19.8-16.5,17.9-.8h0ZM324.9-58.5c-.3-6.6-9.6-6.3-10.3,0h10.3Z"/>
        <path class="st0" d="M468.1-66.7c14.7-1.9,15.5,22.3-1,19.7-9.8-1.6-10.1-18.3,1-19.7ZM468.7-63.2c-7.2.9-7,14.4,2.4,12.7,6.3-1.2,5.5-13.6-2.4-12.7Z"/>
        <path class="st0" d="M169.7-51.1h12c.8,0,.4,3.2.5,3.8h-16.7v-26.9c.7,0,4.2-.3,4.2.5v22.6Z"/>
        <path class="st0" d="M355.3-71.6v5.4h5.5v3.2h-5.5v11.1c0,.3,1.4,1.3,1.8,1.4,1.2.3,2.1-.3,3.3-.2.4,2.3,1.1,3.5-1.8,3.8-10,1-7.1-9.3-7.5-15.7-.5,0-3.4-.2-3.5-.3-.1,0,0-2.4,0-2.7.1-1,2.7-.8,3.5-.8,0-4.3-1.1-5.7,4.2-5.1h0Z"/>
        <path class="st0" d="M522-71.6v5.1h5c.7,0,.4,2.9.5,3.5h-5.5v10.7c0,.5,1.2,1.6,1.8,1.7,2.7.6,3.4-2.2,3.9,2.9-.7.1-1.4.5-2.1.6-10.3,1.3-6.9-9-7.5-15.5-.3-1-2.9-.4-3.8-.5,0-.5-.1-3.1,0-3.2.1-.1,3.3-.2,3.8-.3v-5.1h3.8,0Z"/>
        <path class="st0" d="M104.3-71.6v5.1c.7,0,5.2,0,5.4.3.1.1,0,2.7,0,3.2h-5.4v10.7c0,.1.6,1,.8,1.1,1.7,1.4,3.6-.1,4.3.3.3.2.5,3.3.3,3.5-.6.6-5.3.3-6.4-.1s-2.9-2.8-2.9-3.8v-11.7c-3.4.4-4.2,1.1-3.9-3,.7-.8,3.9,0,3.9-.7v-5h3.8Z"/>
        <path class="st0" d="M251.2-71.6v5.4h5.5v3.2h-5.4v10.7c0,1.9,3.8,1.9,5.1,1.5.3.2.5,3.3.3,3.5-.6.6-5.3.3-6.4-.1s-2.9-2.8-2.9-3.8v-11.7h-3.9v-3s3.9-.5,3.9-.5v-5.1h3.9Z"/>
        <path class="st0" d="M339.3-71.6v5.4h5.5v3.2h-5.5v10.7c0,.1.6,1,.8,1.1,1.5,1.3,3,.3,4.6.3-.3,2.4,1.5,3.3-1.5,3.8-10.7,1.6-7.2-9.3-7.8-15.9-.9-.2-3.8.6-3.9-.8,0-.2.2-2.3.3-2.4.2-.2,3.5.4,3.5-.5v-5h3.9Z"/>
        <path class="st0" d="M86.1-47.3h-4.2v-18.9c2.2-.3,4.7-1.3,4.2,1.9.9-1.8,6.4-3.5,7.6-1.9.3.4-.1,3.2-.5,3.4s-2.9-.3-4.7.7c-.9.5-2.3,2.5-2.3,3.4v11.4h0Z"/>
        <path class="st0" d="M136.7-66c.2-.7,3.1-.7,3.6-.3.6.5,0,2.4.5,2.4.4-2.4,7.3-3.9,7.8-2.1,0,.2-.5,3.2-.6,3.3-.1,0-1.9-.4-2.7-.3-2.1.2-4.7,2.4-4.7,4.6v11.1h-3.9v-18.8h0Z"/>
        <path class="st0" d="M387.7-66.2c2.4.1,4-1.6,4,1.9,1.8-2.3,4.8-2.9,7.5-2.2l-.3,3.8c-2.4-.6-4.9-.4-6.4,1.8-.2.3-1,2.1-1,2.2v11.4h-3.9v-18.9h0Z"/>
        <path class="st0" d="M445.4-66.2c.1-.1,3-.2,3.5-.2l.5,2.4c1.5-2.6,4.7-3.3,7.5-2.6l-.3,3.8c-2.3-.6-5-.4-6.4,1.8-.2.4-1,2.2-1,2.5v11.1h-3.9v-18.9h0Z"/>
        <path class="st0" d="M191.2-66.2v18.9h-3.9v-18.8c0-1,3.2,0,3.9-.2Z"/>
        <path class="st0" d="M266.1-51.3c2.1,2.6-1.7,6.3-4.1,3.6-2.5-2.9,2.2-6,4.1-3.6Z"/>
        <path class="st0" d="M557.5-52c4.1-.9,4.3,4.4,1.5,5-3.7.8-4.2-4.4-1.5-5Z"/>
        <path class="st0" d="M188.6-74.4c4.2-.9,4.5,4.5,1.1,4.9-3,.4-4.1-4.2-1.1-4.9Z"/>
        <path class="st4" d="M355.8-140.3s-26.5,13.6-6.9,36.5c0,0-5-20,6.9-36.5Z"/>
      </g>
    </g>
  </g>
  <image width="56" height="64" transform="translate(-389.5 -570) scale(5.4)" xlink:href="innovo grow logo-1.png"/>
  <rect class="st3" x="200.8" y="-435.1" width="75" height="73.5"/>
  <path class="st3" d="M861.3-529.9h-32.8c-1.7,0-2.8,1.1-2.8,2.8s1.1,2.8,2.8,2.8h32.8c1.7,0,2.8-1.1,2.8-2.8s-1.7-2.8-2.8-2.8ZM877.4-551.5h-48.9c-1.7,0-2.8,1.1-2.8,2.8s1.1,2.8,2.8,2.8h48.9c1.7,0,2.8-1.1,2.8-2.8s-1.1-2.8-2.8-2.8ZM828.6-589.9h13.3c1.7,0,2.8-1.1,2.8-2.8s-1.1-2.8-2.8-2.8h-13.3c-1.7,0-2.8,1.1-2.8,2.8s1.1,2.8,2.8,2.8ZM874.7-619.3h-59.4c-6.1,0-11.1,5-11.1,11.1v97.8c0,6.1,5,11.1,11.1,11.1h76.1c6.1,0,11.1-5,11.1-11.1v-79.4l-27.8-29.4ZM896.3-511c0,2.8-2.2,5.6-5.6,5.6h-75.6c-2.8,0-5.6-2.2-5.6-5.6v-97.8c0-2.8,2.2-5.6,5.6-5.6h48.9v27.2c0,2.8,2.2,5.6,5.6,5.6h27.2v70.6h-.6ZM869.1-587.1v-27.2h2.8l24.4,27.2h-27.2ZM825.8-571c0,1.7,1.1,2.8,2.8,2.8h48.9c1.7,0,2.8-1.1,2.8-2.8s-1.1-2.8-2.8-2.8h-48.9c-1.7.6-2.8,1.7-2.8,2.8Z"/>
  <g>
    <path class="st3" d="M1012-499.3h-81c-1.5,0-2.6-1.1-2.6-2.6v-114.8c0-1.5,1.1-2.6,2.6-2.6h67.6c.7,0,1.3.3,1.8.7l23.2,22.6c.5.5.8,1.1.8,1.9v33c0,1.5-1.1,2.6-2.6,2.6s-2.6-1.1-2.6-2.6v-31.8l-21.8-21.1h-63.8v109.6h78.4c1.5,0,2.6,1.1,2.6,2.6s-1.2,2.6-2.6,2.6Z"/>
    <path class="st3" d="M1020-588.9h-24.9c-1.5,0-2.6-1.1-2.6-2.6v-25.3c0-1.5,1.1-2.6,2.6-2.6s2.6,1.1,2.6,2.6v22.7h22.3c1.5,0,2.6,1.1,2.6,2.6s-1.2,2.6-2.6,2.6ZM1013.8-499.4c-17.7,0-32.1-14.4-32.1-32.1s14.4-32.1,32.1-32.1,32.1,14.4,32.1,32.1-14.4,32.1-32.1,32.1h0ZM1013.8-558.6c-14.9,0-26.9,12.1-26.9,26.9s12.1,26.9,26.9,26.9,26.9-12.1,26.9-26.9-12-26.9-26.9-26.9Z"/>
    <path class="st3" d="M1010.9-520.3c-.6,0-1.2-.2-1.8-.7l-8.8-8.3c-1-.9-1.1-2.6-.1-3.6.9-1,2.6-1.1,3.6-.1l6.8,6.4,14.6-16.8c.9-1,2.6-1.2,3.6-.2,1,.9,1.2,2.6.2,3.6l-16.4,18.8c-.4.5-1.1.8-1.9.9q.1,0,0,0h0ZM948.4-546.8c-.6,0-1.2-.2-1.8-.6-1-.9-1.1-2.6-.2-3.6l9.6-10.8c.8-.9,2.1-1.1,3.1-.5l11.6,6.1,13.7-20.5c.8-1.1,2.4-1.6,3.6-.7,1.1.8,1.6,2.4.7,3.6l-15,22.4c-.7,1.1-2.2,1.5-3.3.8l-11.8-6.2-8.3,9.2c-.5.5-1.2.8-2,.8Z"/>
    <path class="st3" d="M990.6-566.2c-1.1,0-2.3-.8-2.5-2l-1.7-6.9-8.4,1c-1.5.2-2.7-.8-2.9-2.3s.8-2.7,2.3-2.9l10.8-1.2c1.3-.2,2.5.7,2.8,2l2.2,9.2c.3,1.3-.5,2.8-2,3.1h-.6,0ZM965-525.9h-17.5c-1.5,0-2.6-1.1-2.6-2.6s1.1-2.6,2.6-2.6h17.5c1.5,0,2.6,1.1,2.6,2.6s-1.1,2.6-2.6,2.6Z"/>
  </g>
  <g>
    <path class="st3" d="M753-569.3c0-2-1.7-3.3-3.3-3.3h-60c-1.7,0-3.3,1.3-3.3,3.3s1.7,3.3,3.3,3.3h60c2,0,3.3-1.3,3.3-3.3ZM709.4-552.7h-19c-2,0-3.7,1.3-3.7,3.3s1.7,3.3,3.7,3.3h19c2,0,3.7-1.3,3.7-3.3s-1.7-3.3-3.7-3.3ZM709.4-532.7h-19c-2,0-3.7,1.3-3.7,3.3s1.7,3.3,3.7,3.3h19c2,0,3.7-1.3,3.7-3.3s-1.7-3.3-3.7-3.3ZM689.7-586h60c1.7,0,3.3-1.7,3.3-3.3s-1.7-3.3-3.3-3.3h-60c-1.7,0-3.3,1.7-3.3,3.3s1.7,3.3,3.3,3.3Z"/>
    <path class="st3" d="M769.7-619.3h-100c-1.7,0-3.3,1.7-3.3,3.3v113.3c0,2,1.7,3.3,3.3,3.3h50c2,0,3.3-1.3,3.3-3.3s-1.3-3.3-3.3-3.3h-46.7v-106.7h93.3v50c0,2,1.3,3.3,3.3,3.3s3.3-1.3,3.3-3.3v-53.3c0-1.7-1.3-3.3-3.3-3.3h0Z"/>
    <path class="st3" d="M762.7-521c2.3-3.3,3.7-7.3,3.7-11.7,0-11-9-20-20-20s-20,9-20,20,9,20,20,20,8.3-1.3,11.7-3.7l13.7,13.7c.7.7,1.7,1,2.3,1s1.7-.3,2.3-1c1.3-1.3,1.3-3.3,0-4.7l-13.7-13.7h0ZM746.4-519.3c-7.3,0-13.3-6-13.3-13.3s6-13.3,13.3-13.3,13.3,6,13.3,13.3-6,13.3-13.3,13.3Z"/>
  </g>
  <path class="st1" d="M1158-622c-20.5,0-37.2,16.7-37.2,37.2s8,26.5,19.7,32.8c-24.4,7.5-42.1,30.2-42.1,57s1.6,3.6,3.6,3.6,3.6-1.6,3.6-3.6c0-29,23.6-52.5,52.3-52.6.4,0,.8,0,1.1,0,20.1-.5,36.3-17,36.3-37.2,0-20.5-16.7-37.2-37.2-37.2h0ZM1158-554.7c-16.6,0-30.1-13.5-30.1-30.1s13.5-30.1,30.1-30.1,30.1,13.5,30.1,30.1c0,16.6-13.5,30.1-30.1,30.1h0ZM1200.2-537.1c-1.4-1.4-3.6-1.4-5,0-1.4,1.4-1.4,3.6,0,5,9.9,9.9,15.3,23.1,15.3,37.1s1.6,3.6,3.6,3.6,3.6-1.6,3.6-3.6c0-15.9-6.2-30.9-17.4-42.1h0ZM1120.4-553.8h0c0-2-1.6-3.6-3.6-3.6-12.9,0-23.4-11.2-23.4-25s10.5-25,23.4-25,3.6-1.6,3.6-3.6-1.6-3.6-3.6-3.6c-16.8,0-30.5,14.4-30.5,32.1s6.1,22.1,15.1,27.7c-19.2,6.8-33,25.9-33,48.4s1.6,3.6,3.6,3.6,3.6-1.6,3.6-3.6c0-24.3,18.5-44,41.3-44,2,0,3.5-1.6,3.5-3.6h0Z"/>
</svg>